# This file uses centimeters as units for non-parametric coordinates.

mtllib BlockHalf.mtl
g default
v 0.732160 0.732158 97.500241
v 2.499753 0.000000 97.500241
v 2.499753 0.732158 99.267834
v 2.499753 2.499750 100.000000
v 0.732160 2.499750 99.267834
v 0.000000 2.499750 97.500241
v 99.267834 0.732158 97.500241
v 100.000000 2.499750 97.500241
v 99.267834 2.499750 99.267834
v 97.500241 2.499750 100.000000
v 97.500241 0.732158 99.267834
v 97.500241 0.000000 97.500241
v 0.732160 49.267840 97.500241
v 0.000000 47.500250 97.500241
v 0.732160 47.500250 99.267834
v 2.499753 47.500250 100.000000
v 2.499753 49.267840 99.267834
v 2.499753 50.000000 97.500241
v 99.267834 49.267840 97.500241
v 97.500241 50.000000 97.500241
v 97.500241 49.267840 99.267834
v 97.500241 47.500250 100.000000
v 99.267834 47.500250 99.267834
v 100.000000 47.500250 97.500241
v 0.732160 47.500250 0.732160
v 0.000000 47.500250 2.499753
v 0.732160 49.267840 2.499753
v 2.499753 50.000000 2.499753
v 2.499753 49.267840 0.732160
v 2.499753 47.500250 0.000000
v 99.267834 47.500250 0.732160
v 97.500241 47.500250 0.000000
v 97.500241 49.267840 0.732160
v 97.500241 50.000000 2.499753
v 99.267834 49.267840 2.499753
v 100.000000 47.500250 2.499753
v 0.732160 0.732158 2.499753
v 0.000000 2.499750 2.499753
v 0.732160 2.499750 0.732160
v 2.499753 2.499750 0.000000
v 2.499753 0.732158 0.732160
v 2.499753 0.000000 2.499753
v 99.267834 0.732158 2.499753
v 97.500241 0.000000 2.499753
v 97.500241 0.732158 0.732160
v 97.500241 2.499750 0.000000
v 99.267834 2.499750 0.732160
v 100.000000 2.499750 2.499753
v 1.057023 1.057023 98.942977
v 98.942977 1.057023 98.942977
v 1.057023 48.942977 98.942977
v 98.942977 48.942977 98.942977
v 1.057023 48.942977 1.057023
v 98.942977 48.942977 1.057023
v 1.057023 1.057023 1.057023
v 98.942977 1.057023 1.057023
vt 0.381249 0.993751
vt 0.381249 0.012499
vt 0.618751 0.993751
vt 0.631249 0.012499
vt 0.381249 0.237501
vt 0.618751 0.237501
vt 0.631249 0.237501
vt 0.131249 0.012499
vt 0.381249 0.493751
vt 0.618751 0.493751
vt 0.868751 0.237501
vt 0.868751 0.012499
vt 0.618751 0.756249
vt 0.381249 0.737501
vt 0.618751 0.737501
vt 0.618751 0.012499
vt 0.381249 0.256249
vt 0.618751 0.256249
vt 0.381249 0.512499
vt 0.618751 0.512499
vt 0.381249 0.756249
vt 0.368751 0.012499
vt 0.368751 0.237501
vt 0.131249 0.237501
vt 0.375000 0.995889
vt 0.370889 -0.000000
vt 0.379111 -0.000000
vt 0.379111 1.000000
vt 0.375000 0.012445
vt 0.629111 -0.000000
vt 0.625000 0.995889
vt 0.625000 0.012445
vt 0.620889 1.000000
vt 0.620889 -0.000000
vt 0.370889 0.250000
vt 0.375000 0.254111
vt 0.375000 0.237555
vt 0.381147 0.249078
vt 0.625000 0.254111
vt 0.629111 0.250000
vt 0.618853 0.249078
vt 0.625000 0.237555
vt 0.125000 0.242379
vt 0.375000 0.507621
vt 0.375000 0.495889
vt 0.129111 0.250000
vt 0.381147 0.500921
vt 0.625000 0.507621
vt 0.875000 0.242379
vt 0.618853 0.500921
vt 0.870889 0.250000
vt 0.625000 0.495889
vt 0.129111 -0.000000
vt 0.375000 0.754111
vt 0.375000 0.742379
vt 0.125000 0.007621
vt 0.381147 0.749079
vt 0.625000 0.754111
vt 0.870889 -0.000000
vt 0.618853 0.749079
vt 0.875000 0.007621
vt 0.625000 0.742379
vt 0.375000 1.000000
vt 0.375000 0.000000
vt 0.625000 0.000000
vt 0.625000 1.000000
vt 0.375000 0.250000
vt 0.625000 0.250000
vt 0.125000 0.250000
vt 0.375000 0.500000
vt 0.625000 0.500000
vt 0.875000 0.250000
vt 0.125000 0.000000
vt 0.375000 0.750000
vt 0.625000 0.750000
vt 0.875000 0.000000
vn -0.007502 -0.999944 0.007502
vn -0.382076 -0.924115 0.005388
vn -0.382076 -0.924115 -0.005388
vn -0.007502 -0.999944 -0.007502
vn -0.924053 -0.382244 0.003914
vn -0.999851 -0.015565 0.007476
vn -0.999851 -0.015565 -0.007476
vn -0.924053 -0.382244 -0.003914
vn -0.007476 -0.015566 0.999851
vn -0.003914 -0.382246 0.924052
vn 0.003914 -0.382246 0.924052
vn 0.007476 -0.015566 0.999851
vn -0.005387 -0.924116 0.382075
vn 0.007502 -0.999944 0.007502
vn 0.005388 -0.924116 0.382075
vn -0.924300 -0.010127 0.381533
vn -0.924300 0.010127 0.381533
vn -0.999851 0.015565 0.007476
vn -0.381535 -0.010127 0.924299
vn -0.007476 0.015566 0.999851
vn -0.381535 0.010127 0.924299
vn 0.999851 -0.015566 0.007476
vn 0.924053 -0.382245 0.003914
vn 0.924053 -0.382245 -0.003914
vn 0.999851 -0.015566 -0.007476
vn 0.382075 -0.924116 0.005388
vn 0.007502 -0.999944 -0.007502
vn 0.382075 -0.924116 -0.005388
vn 0.381535 -0.010127 0.924299
vn 0.381535 0.010127 0.924299
vn 0.007476 0.015566 0.999851
vn 0.924299 -0.010127 0.381536
vn 0.999851 0.015566 0.007476
vn 0.924299 0.010127 0.381536
vn -0.924053 0.382244 0.003914
vn -0.924053 0.382244 -0.003914
vn -0.999851 0.015565 -0.007476
vn -0.382076 0.924115 0.005388
vn -0.007502 0.999944 0.007502
vn -0.007502 0.999944 -0.007502
vn -0.382076 0.924115 -0.005388
vn -0.005388 0.924115 0.382076
vn 0.005388 0.924115 0.382076
vn 0.007502 0.999944 0.007502
vn -0.003914 0.382246 0.924052
vn 0.003914 0.382246 0.924052
vn 0.382076 0.924115 0.005388
vn 0.382076 0.924115 -0.005388
vn 0.007502 0.999944 -0.007502
vn 0.924053 0.382246 0.003914
vn 0.999851 0.015566 -0.007476
vn 0.924053 0.382246 -0.003914
vn -0.924300 0.010127 -0.381532
vn -0.924300 -0.010127 -0.381532
vn -0.381532 0.010127 -0.924300
vn -0.007476 0.015565 -0.999851
vn -0.007476 -0.015565 -0.999851
vn -0.381532 -0.010127 -0.924300
vn -0.003914 0.382244 -0.924053
vn 0.003914 0.382244 -0.924053
vn 0.007476 0.015565 -0.999851
vn -0.005387 0.924115 -0.382076
vn 0.005387 0.924115 -0.382076
vn 0.381532 0.010127 -0.924300
vn 0.381532 -0.010127 -0.924300
vn 0.007476 -0.015565 -0.999851
vn 0.924299 0.010127 -0.381535
vn 0.924299 -0.010127 -0.381535
vn -0.005387 -0.924116 -0.382075
vn 0.005387 -0.924116 -0.382075
vn -0.003914 -0.382243 -0.924053
vn 0.003914 -0.382243 -0.924053
vn -0.887920 -0.325268 0.325269
vn -0.325268 -0.887919 0.325269
vn -0.325269 -0.325269 0.887919
vn 0.325268 -0.887920 0.325269
vn 0.887919 -0.325269 0.325268
vn 0.325268 -0.325269 0.887919
vn -0.325269 0.887919 0.325269
vn -0.887919 0.325268 0.325269
vn -0.325269 0.325270 0.887919
vn 0.887919 0.325270 0.325269
vn 0.325268 0.887919 0.325269
vn 0.325269 0.325269 0.887919
vn -0.325267 0.325270 -0.887919
vn -0.887919 0.325269 -0.325269
vn -0.325269 0.887919 -0.325270
vn 0.887919 0.325270 -0.325269
vn 0.325267 0.325269 -0.887920
vn 0.325269 0.887919 -0.325269
vn -0.325269 -0.887919 -0.325270
vn -0.887919 -0.325268 -0.325269
vn -0.325267 -0.325270 -0.887919
vn 0.887919 -0.325270 -0.325269
vn 0.325268 -0.887919 -0.325270
vn 0.325267 -0.325269 -0.887919
s 1
g pCube11
usemtl initialShadingGroup
f 2/1/1 1/25/2 37/54/3 42/21/4
s 2
f 1/26/5 6/22/6 38/8/7 37/53/8
s 3
f 4/2/9 3/27/10 11/34/11 10/16/12
s 1
f 3/28/13 2/1/1 12/3/14 11/33/15
s 2
f 6/22/6 5/29/16 15/37/17 14/23/18
s 3
f 5/29/19 4/2/9 16/5/20 15/37/21
s 4
f 8/4/22 7/30/23 43/59/24 48/12/25
s 1
f 7/31/26 12/3/14 44/13/27 43/58/28
s 3
f 10/16/12 9/32/29 23/42/30 22/6/31
s 4
f 9/32/32 8/4/22 24/7/33 23/42/34
s 2
f 14/23/18 13/35/35 27/46/36 26/24/37
s 5
f 13/36/38 18/17/39 28/9/40 27/45/41
f 18/17/39 17/38/42 21/41/43 20/18/44
s 3
f 17/38/45 16/5/20 22/6/31 21/41/46
s 5
f 20/18/44 19/39/47 35/52/48 34/10/49
s 4
f 19/40/50 24/7/33 36/11/51 35/51/52
s 2
f 26/24/37 25/43/53 39/56/54 38/8/7
s 6
f 25/44/55 30/19/56 40/14/57 39/55/58
f 30/19/56 29/47/59 33/50/60 32/20/61
s 5
f 29/47/62 28/9/40 34/10/49 33/50/63
s 6
f 32/20/61 31/48/64 47/62/65 46/15/66
s 4
f 31/49/67 36/11/51 48/12/25 47/61/68
s 1
f 42/21/4 41/57/69 45/60/70 44/13/27
s 6
f 41/57/71 40/14/57 46/15/66 45/60/72
s 3
f 4/2/9 10/16/12 22/6/31 16/5/20
s 5
f 18/17/39 20/18/44 34/10/49 28/9/40
s 6
f 30/19/56 32/20/61 46/15/66 40/14/57
s 1
f 42/21/4 44/13/27 12/3/14 2/1/1
s 4
f 8/4/22 48/12/25 36/11/51 24/7/33
s 2
f 38/8/7 6/22/6 14/23/18 26/24/37
f 5/29/16 6/22/6 1/26/5 49/64/73
s 1
f 1/25/2 2/1/1 3/28/13 49/63/74
s 3
f 3/27/10 4/2/9 5/29/19 49/64/75
s 1
f 11/33/15 12/3/14 7/31/26 50/66/76
s 4
f 7/30/23 8/4/22 9/32/32 50/65/77
s 3
f 9/32/29 10/16/12 11/34/11 50/65/78
s 5
f 17/38/42 18/17/39 13/36/38 51/67/79
s 2
f 13/35/35 14/23/18 15/37/17 51/67/80
s 3
f 15/37/21 16/5/20 17/38/45 51/67/81
s 4
f 23/42/34 24/7/33 19/40/50 52/68/82
s 5
f 19/39/47 20/18/44 21/41/43 52/68/83
s 3
f 21/41/46 22/6/31 23/42/30 52/68/84
s 6
f 29/47/59 30/19/56 25/44/55 53/70/85
s 2
f 25/43/53 26/24/37 27/46/36 53/69/86
s 5
f 27/45/41 28/9/40 29/47/62 53/70/87
s 4
f 35/51/52 36/11/51 31/49/67 54/72/88
s 6
f 31/48/64 32/20/61 33/50/60 54/71/89
s 5
f 33/50/63 34/10/49 35/52/48 54/71/90
s 1
f 41/57/69 42/21/4 37/54/3 55/74/91
s 2
f 37/53/8 38/8/7 39/56/54 55/73/92
s 6
f 39/55/58 40/14/57 41/57/71 55/74/93
s 4
f 47/61/68 48/12/25 43/59/24 56/76/94
s 1
f 43/58/28 44/13/27 45/60/70 56/75/95
s 6
f 45/60/72 46/15/66 47/62/65 56/75/96
