# This file uses centimeters as units for non-parametric coordinates.

mtllib ScrewDriver.mtl
g default
v 1.274349 43.924430 -7.373410
v -7.368675 43.924430 -7.373412
v -11.690187 43.924430 0.111665
v -7.368677 43.924430 7.596743
v 1.274346 43.924430 7.596744
v 5.595858 43.924430 0.111666
v 1.274349 66.299089 -7.373410
v -7.368675 66.299089 -7.373412
v -11.690187 66.299089 0.111665
v -7.368677 66.299089 7.596743
v 1.274346 66.299089 7.596744
v 5.595858 66.299089 0.111666
v -3.047165 0.709324 0.111666
v -3.047165 74.942118 0.111666
v -3.047165 47.712093 7.596744
v -3.047165 50.455652 5.606261
v -3.047165 59.767874 5.606261
v -3.047165 61.520164 7.596744
v -9.529432 47.712093 3.854204
v -7.805624 50.455652 2.858963
v -7.805624 59.767874 2.858963
v -9.529432 61.520164 3.854204
v -9.529431 47.712093 -3.630874
v -7.805623 50.455652 -2.635632
v -7.805623 59.767874 -2.635632
v -9.529431 61.520164 -3.630874
v -3.047163 47.712093 -7.373411
v -3.047163 50.455652 -5.382928
v -3.047163 59.767874 -5.382928
v -3.047163 61.520164 -7.373411
v 3.435103 47.712093 -3.630872
v 1.711295 50.455652 -2.635631
v 1.711295 59.767874 -2.635631
v 3.435103 61.520164 -3.630872
v 3.435102 47.712093 3.854205
v 1.711295 50.455652 2.858964
v 1.711295 59.767874 2.858964
v 3.435102 61.520164 3.854205
v 0.838840 50.455652 -4.146768
v -1.302252 50.455652 -5.382928
v -4.792075 50.455652 -5.382929
v -6.933168 50.455652 -4.146770
v -8.678079 50.455652 -1.124495
v -8.678079 50.455652 1.347825
v -6.933168 50.455652 4.370101
v -4.792077 50.455652 5.606261
v -1.302253 50.455652 5.606262
v 0.838839 50.455652 4.370102
v 2.583750 50.455652 1.347826
v 2.583750 50.455652 -1.124494
v 0.838840 59.767874 -4.146768
v -1.302252 59.767874 -5.382928
v -4.792075 59.767874 -5.382929
v -6.933168 59.767874 -4.146770
v -8.678079 59.767874 -1.124495
v -8.678079 59.767874 1.347825
v -6.933168 59.767874 4.370101
v -4.792077 59.767874 5.606261
v -1.302253 59.767874 5.606262
v 0.838839 59.767874 4.370102
v 2.583750 59.767874 1.347826
v 2.583750 59.767874 -1.124494
v -1.648694 74.605153 -0.904382
v -2.512997 74.605153 -1.532335
v -3.581333 74.605153 -1.532334
v -4.445635 74.605153 -0.904382
v -4.775769 74.605153 0.111666
v -4.445635 74.605153 1.127715
v -3.581333 74.605153 1.755667
v -2.512996 74.605153 1.755667
v -1.648694 74.605153 1.127715
v -1.318560 74.605153 0.111666
v -1.648694 125.924662 -0.904382
v -2.512997 125.924662 -1.532335
v -3.581333 125.924662 -1.532334
v -4.445635 125.924662 -0.904382
v -5.120463 125.924662 0.111666
v -4.724498 125.924662 1.127715
v -3.687849 125.924662 1.755667
v -2.406480 125.924662 1.755667
v -1.369831 125.924662 1.127715
v -0.973867 125.924662 0.111666
v -1.904312 133.308343 -0.091519
v -4.190019 133.308343 -0.091500
v -4.190017 133.308343 0.314872
v -1.904312 133.308343 0.314852
v -3.581333 120.342411 1.755667
v -4.445635 120.342411 1.127715
v -4.775769 120.342411 0.111666
v -4.445635 120.342411 -0.904382
v -3.581333 120.342411 -1.532334
v -2.512997 120.342411 -1.532335
v -1.648694 120.342411 -0.904382
v -1.318560 120.342411 0.111666
v -1.648694 120.342411 1.127715
v -2.512996 120.342411 1.755667
v 0.410133 74.942118 -5.876545
v 1.021226 74.503696 -6.934988
v 1.274349 73.445250 -7.373410
v -6.504459 74.942118 -5.876546
v -7.115552 74.503696 -6.934990
v -7.368675 73.445250 -7.373412
v -9.961756 74.942118 0.111665
v -11.183941 74.503696 0.111665
v -11.690187 73.445250 0.111665
v -6.504461 74.942118 6.099878
v -7.115554 74.503696 7.158321
v -7.368677 73.445250 7.596743
v 0.410131 74.942118 6.099878
v 1.021224 74.503696 7.158322
v 1.274347 73.445250 7.596744
v 3.867427 74.942118 0.111666
v 5.089612 74.503696 0.111666
v 5.595858 73.445250 0.111666
v -6.504461 0.709324 6.099878
v -7.115554 1.147746 7.158321
v -7.368677 2.206190 7.596743
v 1.274346 2.206190 7.596744
v 1.021223 1.147746 7.158322
v 0.410131 0.709324 6.099878
v -9.961756 0.709324 0.111665
v -11.183941 1.147746 0.111665
v -11.690187 2.206190 0.111665
v -6.504459 0.709324 -5.876546
v -7.115552 1.147746 -6.934990
v -7.368675 2.206190 -7.373412
v 0.410133 0.709324 -5.876545
v 1.021226 1.147746 -6.934988
v 1.274349 2.206190 -7.373410
v 3.867427 0.709324 0.111666
v 5.089612 1.147746 0.111666
v 5.595858 2.206190 0.111666
vt 0.939745 0.952098
vt 0.345561 0.761718
vt 0.387876 0.761230
vt 0.430757 0.761384
vt 0.473712 0.761434
vt 0.516495 0.761502
vt 0.558350 0.762979
vt 0.570440 0.821431
vt 0.235195 0.944959
vt 0.333330 0.762089
vt 0.332772 0.822936
vt 0.316414 0.820891
vt 0.375143 0.761044
vt 0.374855 0.824528
vt 0.357726 0.824304
vt 0.417929 0.761169
vt 0.417775 0.824620
vt 0.400529 0.824630
vt 0.460887 0.761265
vt 0.460817 0.824667
vt 0.443553 0.824639
vt 0.503778 0.761250
vt 0.503829 0.824769
vt 0.486576 0.824742
vt 0.546143 0.761931
vt 0.546484 0.824018
vt 0.529349 0.824559
vt 0.345172 0.823433
vt 0.387667 0.824287
vt 0.430645 0.824319
vt 0.473679 0.824396
vt 0.516588 0.824394
vt 0.558574 0.822639
vt 0.486494 0.761254
vt 0.443554 0.761248
vt 0.400603 0.761090
vt 0.357914 0.761163
vt 0.570315 0.763953
vt 0.529128 0.761456
vt 0.316604 0.763766
vt 0.978415 0.994476
vt 0.971305 0.994495
vt 0.970517 0.690097
vt 0.977634 0.690062
vt 0.964193 0.994514
vt 0.963397 0.690118
vt 0.957082 0.994532
vt 0.956277 0.690122
vt 0.949971 0.994551
vt 0.949162 0.690116
vt 0.941944 0.212162
vt 0.953466 0.516367
vt 0.949049 0.211892
vt 0.960594 0.516079
vt 0.956154 0.211622
vt 0.967723 0.515801
vt 0.963260 0.211352
vt 0.974853 0.515553
vt 0.970365 0.211082
vt 0.981971 0.515273
vt 0.977461 0.652905
vt 0.970410 0.653276
vt 0.975112 0.603330
vt 0.963349 0.653267
vt 0.958468 0.603452
vt 0.956309 0.652920
vt 0.948243 0.652334
vt 0.953241 0.553633
vt 0.960040 0.601597
vt 0.961248 0.552731
vt 0.969757 0.552373
vt 0.973484 0.601417
vt 0.977803 0.552785
vt 0.985056 0.553507
vt 0.312239 0.717649
vt 0.646752 0.960664
vt 0.705587 0.960806
vt 0.764572 0.959993
vt 0.823521 0.958166
vt 0.927996 0.672293
vt 0.882154 0.955359
vt 0.252763 0.903962
vt 0.252529 0.990831
vt 0.313815 0.886118
vt 0.304039 0.970122
vt 0.377640 0.876403
vt 0.356642 0.957909
vt 0.442301 0.875787
vt 0.410147 0.953408
vt 0.505983 0.884328
vt 0.463762 0.956522
vt 0.565544 0.900395
vt 0.516784 0.966963
vt 0.084528 0.910499
vt 0.038541 0.910283
vt 0.015361 0.950000
vt 0.038167 0.989933
vt 0.084153 0.990149
vt 0.061347 0.950216
vt 0.107333 0.950432
vt 0.153275 0.989034
vt 0.130367 0.949159
vt 0.153445 0.909383
vt 0.199432 0.909481
vt 0.222340 0.949356
vt 0.199261 0.989132
vt 0.176353 0.949257
vt 0.794791 0.984588
vt 0.815106 0.682761
vt 0.469346 0.909913
vt 0.735520 0.985955
vt 0.759261 0.684124
vt 0.409211 0.906357
vt 0.676306 0.986334
vt 0.703417 0.684264
vt 0.349166 0.911387
vt 0.617403 0.985884
vt 0.647416 0.682744
vt 0.290631 0.924718
vt 0.912056 0.979103
vt 0.570039 0.985066
vt 0.582673 0.870468
vt 0.853840 0.982241
vt 0.871190 0.679679
vt 0.528139 0.921856
vt 0.591193 0.677260
vt 0.203580 0.996706
vt 0.565762 0.991779
vt 0.257154 0.997235
vt 0.306512 0.977340
vt 0.148875 0.996561
vt 0.357944 0.965465
vt 0.121648 0.949113
vt 0.410357 0.961075
vt 0.149126 0.901809
vt 0.462889 0.964136
vt 0.203831 0.901954
vt 0.514767 0.974338
vt 0.231058 0.949402
vt 0.759138 0.676540
vt 0.033748 0.997449
vt 0.088453 0.997734
vt 0.814682 0.675197
vt 0.703595 0.676679
vt 0.006643 0.949931
vt 0.648264 0.675195
vt 0.034242 0.902698
vt 0.924721 0.664978
vt 0.088946 0.902983
vt 0.594226 0.669762
vt 0.870112 0.672207
vt 0.116052 0.950501
vt 0.517238 0.841025
vt 0.542212 0.872122
vt 0.517457 0.739393
vt 0.542242 0.713746
vt 0.562602 0.839363
vt 0.310389 0.866757
vt 0.583880 0.939636
vt 0.563125 0.741232
vt 0.581760 0.719484
vt 0.588321 0.959787
vt 0.342885 0.840210
vt 0.363732 0.872119
vt 0.342717 0.739654
vt 0.364077 0.713207
vt 0.387275 0.840832
vt 0.408660 0.872044
vt 0.387389 0.739191
vt 0.408967 0.713520
vt 0.430581 0.840767
vt 0.452130 0.872022
vt 0.430728 0.739457
vt 0.452377 0.713719
vt 0.473759 0.840859
vt 0.495796 0.872234
vt 0.473881 0.739488
vt 0.496010 0.713567
vt 0.984750 0.690022
vt 0.985525 0.652284
vt 0.946347 0.516624
vt 0.946049 0.554805
vt 0.985526 0.994458
vt 0.934838 0.212433
vn 0.447673 0.445373 -0.775392
vn 0.000000 0.460862 -0.887471
vn 0.000000 0.211683 -0.977338
vn 0.323651 0.176106 -0.929643
vn -0.447672 0.445373 -0.775392
vn -0.768573 0.460862 -0.443736
vn -0.846400 0.211683 -0.488669
vn -0.643269 0.176106 -0.745112
vn -0.895345 0.445373 0.000000
vn -0.768573 0.460863 0.443736
vn -0.846400 0.211683 0.488669
vn -0.966920 0.176106 0.184532
vn -0.447673 0.445373 0.775392
vn -0.000000 0.460862 0.887472
vn -0.000000 0.211683 0.977338
vn -0.323651 0.176106 0.929643
vn 0.447673 0.445373 0.775392
vn 0.768573 0.460862 0.443736
vn 0.846400 0.211683 0.488669
vn 0.643269 0.176106 0.745111
vn 0.895345 0.445373 -0.000000
vn 0.768573 0.460863 -0.443736
vn 0.846400 0.211683 -0.488669
vn 0.966920 0.176106 -0.184532
vn 0.323651 0.176106 0.929643
vn -0.000000 -0.537000 0.843582
vn -0.000000 -0.228416 0.973564
vn 0.355301 -0.182138 0.916835
vn 0.438912 -0.478981 0.760219
vn -0.643269 0.176106 0.745112
vn -0.730563 -0.537001 0.421791
vn -0.843131 -0.228416 0.486782
vn -0.616351 -0.182138 0.766118
vn -0.438912 -0.478981 0.760219
vn -0.966920 0.176106 -0.184532
vn -0.730563 -0.537001 -0.421791
vn -0.843131 -0.228416 -0.486782
vn -0.971653 -0.182138 -0.150717
vn -0.877825 -0.478982 0.000000
vn -0.323651 0.176106 -0.929643
vn -0.000000 -0.537001 -0.843581
vn 0.000000 -0.228416 -0.973563
vn -0.355302 -0.182138 -0.916835
vn -0.438912 -0.478982 -0.760219
vn 0.643269 0.176106 -0.745111
vn 0.730563 -0.537001 -0.421790
vn 0.843131 -0.228416 -0.486781
vn 0.616351 -0.182138 -0.766118
vn 0.438912 -0.478982 -0.760219
vn 0.966920 0.176106 0.184532
vn 0.730563 -0.537001 0.421791
vn 0.843131 -0.228416 0.486782
vn 0.971653 -0.182138 0.150717
vn 0.877825 -0.478982 0.000001
vn 0.355302 -0.182138 -0.916835
vn -0.616351 -0.182138 -0.766118
vn -0.971653 -0.182138 0.150717
vn -0.355302 -0.182138 0.916835
vn 0.616351 -0.182138 0.766118
vn 0.971653 -0.182138 -0.150716
vn 0.809017 0.000000 -0.587785
vn 0.309017 0.000000 -0.951057
vn 0.309017 0.000000 -0.951056
vn 0.804630 -0.001670 -0.593774
vn -0.309017 0.000000 -0.951056
vn -0.309017 0.000000 -0.951056
vn -0.809017 0.000000 -0.587785
vn -0.804631 -0.001670 -0.593773
vn -1.000000 0.000000 0.000000
vn -0.999960 -0.004767 -0.007544
vn -0.809017 0.000000 0.587785
vn -0.805564 -0.004178 0.592494
vn -0.309017 0.000000 0.951057
vn -0.305641 -0.001138 0.952146
vn 0.309017 0.000000 0.951057
vn 0.305641 -0.001138 0.952146
vn 0.809017 0.000000 0.587785
vn 0.805564 -0.004178 0.592494
vn 1.000000 0.000000 0.000000
vn 0.999960 -0.004767 -0.007544
vn 0.751333 0.032382 -0.659128
vn 0.203178 0.106809 -0.973299
vn 0.959405 0.123409 -0.253600
vn -0.203184 0.106809 -0.973298
vn -0.000006 0.191524 -0.981488
vn -0.000006 0.191524 -0.981488
vn -0.751333 0.032383 -0.659128
vn -0.959406 0.123409 -0.253594
vn -0.995588 0.017209 -0.092236
vn -0.770562 0.028753 0.636716
vn -0.959899 0.133420 0.246564
vn -0.189431 0.103885 0.976383
vn 0.189435 0.103885 0.976382
vn 0.000005 0.191522 0.981488
vn 0.000005 0.191522 0.981488
vn 0.770562 0.028753 0.636717
vn 0.959900 0.133421 0.246559
vn 0.995589 0.017209 -0.092236
vn 0.000000 1.000000 0.000000
vn 0.000000 1.000000 0.000000
vn 0.000000 1.000000 0.000000
vn 0.000000 1.000000 0.000000
vn -0.000000 -0.010762 0.999942
vn -0.000000 -0.382684 0.923879
vn -0.000000 -0.382684 0.923879
vn -0.000000 -0.011214 0.999937
vn -0.168826 -0.941271 0.292415
vn -0.076379 -0.988264 0.132293
vn 0.076379 -0.988264 0.132293
vn 0.168826 -0.941271 0.292415
vn 0.000000 -0.010762 -0.999942
vn 0.000000 -0.011214 -0.999937
vn 0.000000 0.000000 -1.000000
vn 0.000000 0.000000 -1.000000
vn -0.865975 -0.010762 -0.499971
vn -0.865971 -0.011214 -0.499969
vn -0.866025 -0.000000 -0.500000
vn -0.866025 -0.000000 -0.500000
vn -0.865975 -0.010762 0.499971
vn -0.865971 -0.011214 0.499968
vn -0.866026 0.000000 0.500000
vn -0.866025 0.000000 0.500000
vn -0.000000 -0.000000 1.000000
vn -0.000000 -0.000000 1.000000
vn 0.865975 -0.010762 0.499971
vn 0.865971 -0.011214 0.499969
vn 0.866025 0.000000 0.500000
vn 0.866025 0.000000 0.500000
vn 0.865975 -0.010762 -0.499971
vn 0.865971 -0.011214 -0.499968
vn 0.866026 0.000000 -0.500000
vn 0.866025 0.000000 -0.500000
vn 0.000000 0.000000 -1.000000
vn 0.000000 0.000000 -1.000000
vn 0.000000 0.050065 -0.998746
vn 0.000000 0.042428 -0.999099
vn -0.866026 0.000000 -0.500000
vn -0.866026 0.000000 -0.500000
vn -0.864939 0.050065 -0.499373
vn -0.865246 0.042428 -0.499550
vn -0.866026 0.000000 0.499999
vn -0.866026 0.000000 0.499999
vn -0.864940 0.050065 0.499372
vn -0.865246 0.042428 0.499549
vn -0.000000 0.000000 1.000000
vn -0.000000 0.000000 1.000000
vn -0.000000 0.050065 0.998746
vn -0.000000 0.042428 0.999099
vn 0.866025 0.000000 0.500000
vn 0.866025 0.000000 0.500000
vn 0.864939 0.050065 0.499373
vn 0.865245 0.042428 0.499550
vn 0.866026 0.000000 -0.500000
vn 0.866026 0.000000 -0.500000
vn 0.864940 0.050065 -0.499372
vn 0.865246 0.042428 -0.499549
vn -0.076379 -0.988264 -0.132293
vn 0.076379 -0.988264 -0.132293
vn 0.000000 -1.000000 0.000000
vn -0.152758 -0.988264 -0.000000
vn 0.152758 -0.988264 0.000000
vn 0.076379 0.988264 -0.132291
vn -0.076379 0.988264 -0.132290
vn 0.000000 1.000000 0.000000
vn -0.152758 0.988263 0.000001
vn -0.076379 0.988264 0.132292
vn 0.076379 0.988264 0.132292
vn 0.152758 0.988263 -0.000000
vn 0.000000 0.000000 1.000000
vn 0.000000 0.000000 1.000000
vn -0.866026 0.000000 0.500000
vn -0.866026 0.000000 0.500000
vn -0.866025 0.000000 -0.500000
vn -0.866025 0.000000 -0.500000
vn -0.000000 0.000000 -1.000000
vn 0.000000 0.000000 -1.000000
vn 0.866026 0.000000 -0.500000
vn 0.866025 0.000000 -0.500000
vn 0.866025 0.000000 0.500000
vn 0.866025 0.000000 0.500000
vn 0.168827 0.941272 -0.292412
vn -0.168827 0.941272 -0.292410
vn 0.000000 0.382682 -0.923880
vn 0.000000 0.382682 -0.923880
vn -0.337652 0.941271 0.000001
vn -0.800103 0.382682 -0.461941
vn -0.800103 0.382682 -0.461941
vn -0.168826 0.941271 0.292414
vn -0.800104 0.382684 0.461939
vn -0.800104 0.382684 0.461939
vn 0.168826 0.941271 0.292414
vn -0.000000 0.382684 0.923879
vn -0.000000 0.382684 0.923879
vn 0.337653 0.941271 -0.000000
vn 0.800104 0.382683 0.461939
vn 0.800104 0.382683 0.461939
vn 0.800104 0.382683 -0.461939
vn 0.800104 0.382683 -0.461939
vn -0.337652 -0.941271 -0.000000
vn -0.800103 -0.382684 0.461940
vn -0.800103 -0.382684 0.461940
vn -0.168826 -0.941271 -0.292415
vn -0.800103 -0.382683 -0.461940
vn -0.800103 -0.382683 -0.461940
vn 0.168826 -0.941271 -0.292415
vn 0.000000 -0.382684 -0.923879
vn 0.000000 -0.382684 -0.923879
vn 0.337652 -0.941271 0.000000
vn 0.800103 -0.382684 -0.461940
vn 0.800103 -0.382684 -0.461940
vn 0.800103 -0.382684 0.461940
vn 0.800103 -0.382684 0.461940
s 1
g pCylinder7
usemtl initialShadingGroup
f 1/75/1 27/165/2 28/2/3 40/10/4
f 2/166/5 23/169/6 24/3/7 42/13/8
f 3/170/9 19/173/10 20/4/11 44/16/12
f 4/174/13 15/177/14 16/5/15 46/19/16
f 5/178/17 35/155/18 36/6/19 48/22/20
f 6/156/21 31/160/22 32/7/23 50/25/24
f 16/5/15 15/177/14 5/178/17 47/34/25
f 18/175/26 17/31/27 59/24/28 11/176/29
f 20/4/11 19/173/10 4/174/13 45/35/30
f 22/171/31 21/30/32 57/21/33 10/172/34
f 24/3/7 23/169/6 3/170/9 43/36/35
f 26/167/36 25/29/37 55/18/38 9/168/39
f 28/2/3 27/165/2 2/166/5 41/37/40
f 30/163/41 29/28/42 53/15/43 8/164/44
f 32/7/23 31/160/22 1/161/1 39/38/45
f 34/157/46 33/33/47 51/8/48 7/122/49
f 36/6/19 35/155/18 6/156/21 49/39/50
f 38/153/51 37/32/52 61/27/53 12/154/54
f 7/158/49 52/11/55 29/28/42 30/163/41
f 8/164/44 54/14/56 25/29/37 26/167/36
f 9/168/39 56/17/57 21/30/32 22/171/31
f 10/172/34 58/20/58 17/31/27 18/175/26
f 11/176/29 60/23/59 37/32/52 38/153/51
f 12/154/54 62/26/60 33/33/47 34/157/46
f 39/40/45 40/10/4 52/11/55 51/12/48
f 41/37/40 42/13/8 54/14/56 53/15/43
f 43/36/35 44/16/12 56/17/57 55/18/38
f 45/35/30 46/19/16 58/20/58 57/21/33
f 47/34/25 48/22/20 60/23/59 59/24/28
f 49/39/50 50/25/24 62/26/60 61/27/53
f 52/11/55 40/10/4 28/2/3 29/28/42
f 54/14/56 42/13/8 24/3/7 25/29/37
f 56/17/57 44/16/12 20/4/11 21/30/32
f 58/20/58 46/19/16 16/5/15 17/31/27
f 60/23/59 48/22/20 36/6/19 37/32/52
f 62/26/60 50/25/24 32/7/23 33/33/47
f 17/31/27 16/5/15 47/34/25 59/24/28
f 21/30/32 20/4/11 45/35/30 57/21/33
f 25/29/37 24/3/7 43/36/35 55/18/38
f 29/28/42 28/2/3 41/37/40 53/15/43
f 33/33/47 32/7/23 39/38/45 51/8/48
f 37/32/52 36/6/19 49/39/50 61/27/53
f 39/40/45 1/75/1 40/10/4
f 41/37/40 2/166/5 42/13/8
f 43/36/35 3/170/9 44/16/12
f 45/35/30 4/174/13 46/19/16
f 47/34/25 5/178/17 48/22/20
f 49/39/50 6/156/21 50/25/24
f 51/12/48 52/11/55 7/158/49
f 53/15/43 54/14/56 8/164/44
f 55/18/38 56/17/57 9/168/39
f 57/21/33 58/20/58 10/172/34
f 59/24/28 60/23/59 11/176/29
f 61/27/53 62/26/60 12/154/54
s 13
f 63/41/61 64/42/62 92/43/63 93/44/64
f 64/42/62 65/45/65 91/46/66 92/43/63
f 65/45/65 66/47/67 90/48/68 91/46/66
f 66/47/67 67/49/69 89/50/70 90/48/68
f 67/184/69 68/51/71 88/52/72 89/181/70
f 68/51/71 69/53/73 87/54/74 88/52/72
f 69/53/73 70/55/75 96/56/76 87/54/74
f 70/55/75 71/57/77 95/58/78 96/56/76
f 71/57/77 72/59/79 94/60/80 95/58/78
f 72/183/79 63/41/61 93/44/64 94/179/80
f 73/61/81 74/62/82 83/63/83
f 74/62/82 75/64/84 84/65/85 83/63/86
f 75/64/84 76/66/87 84/65/88
f 76/66/87 77/67/89 84/65/88
f 77/182/89 78/68/90 85/69/91
f 78/68/90 79/70/92 85/69/91
f 79/70/92 80/71/93 86/72/94 85/69/95
f 80/71/93 81/73/96 86/72/97
f 81/73/96 82/74/98 86/72/97
f 82/180/98 73/61/81 83/63/83
s off
f 86/72/99 83/63/100 84/65/101 85/69/102
s 13
f 85/69/91 84/65/88 77/182/89
f 83/63/83 86/72/97 82/74/98
f 88/52/72 87/54/74 79/70/92 78/68/90
f 89/181/70 88/52/72 78/68/90 77/182/89
f 90/48/68 89/50/70 77/67/89 76/66/87
f 91/46/66 90/48/68 76/66/87 75/64/84
f 92/43/63 91/46/66 75/64/84 74/62/82
f 93/44/64 92/43/63 74/62/82 73/61/81
f 94/179/80 93/44/64 73/61/81 82/180/98
f 95/58/78 94/60/80 82/74/98 81/73/96
f 96/56/76 95/58/78 81/73/96 80/71/93
f 87/54/74 96/56/76 80/71/93 79/70/92
s 14
f 117/112/103 116/140/104 119/143/105 118/109/106
s 15
f 116/141/107 115/97/108 120/98/109 119/142/110
s 16
f 129/126/111 126/118/112 27/117/113 1/162/114
s 17
f 126/118/115 123/115/116 23/114/117 2/76/118
s 18
f 123/115/119 117/112/120 19/111/121 3/77/122
s 14
f 117/112/103 118/109/106 15/108/123 4/78/124
s 19
f 118/109/125 132/124/126 35/123/127 5/79/128
s 20
f 132/124/129 129/80/130 31/120/131 6/81/132
s 21
f 7/9/133 30/82/134 102/85/135 99/83/136
s 22
f 8/119/137 26/84/138 105/87/139 102/85/140
s 23
f 9/116/141 22/86/142 108/89/143 105/87/144
s 24
f 10/113/145 18/88/146 111/91/147 108/89/148
s 25
f 11/110/149 38/90/150 114/93/151 111/91/152
s 26
f 12/125/153 34/92/154 99/121/155 114/93/156
s 15
f 124/95/157 127/94/158 13/99/159
f 121/96/160 124/95/157 13/99/159
f 115/97/108 121/96/160 13/99/159
f 120/98/109 115/97/108 13/99/159
f 130/100/161 120/98/109 13/99/159
f 127/94/158 130/100/161 13/99/159
s 28
f 97/106/162 100/101/163 14/107/164
f 100/101/163 103/102/165 14/107/164
f 103/102/165 106/103/166 14/107/164
f 106/103/166 109/104/167 14/107/164
f 109/104/167 112/105/168 14/107/164
f 112/105/168 97/106/162 14/107/164
s 14
f 15/108/123 118/109/106 5/79/169
s 24
f 111/91/147 18/88/146 11/110/170
s 18
f 19/111/121 117/112/120 4/78/171
s 23
f 108/89/143 22/86/142 10/113/172
s 17
f 23/114/117 123/115/116 3/77/173
s 22
f 105/87/139 26/84/138 9/116/174
s 16
f 27/117/113 126/118/112 2/76/175
s 21
f 102/85/135 30/82/134 8/119/176
s 20
f 31/120/131 129/80/130 1/1/177
s 26
f 99/121/155 34/92/154 7/159/178
s 19
f 35/123/127 132/124/126 6/81/179
s 25
f 114/93/151 38/90/150 12/125/180
s 28
f 97/106/162 98/127/181 101/131/182 100/101/163
s 21
f 98/129/183 99/83/136 102/85/135 101/130/184
s 28
f 100/101/163 101/131/182 104/133/185 103/102/165
s 22
f 101/130/186 102/85/140 105/87/139 104/132/187
s 28
f 103/102/165 104/133/185 107/135/188 106/103/166
s 23
f 104/132/189 105/87/144 108/89/143 107/134/190
s 28
f 106/103/166 107/135/188 110/137/191 109/104/167
s 24
f 107/134/192 108/89/148 111/91/147 110/136/193
s 28
f 109/104/167 110/137/191 113/139/194 112/105/168
s 25
f 110/136/195 111/91/152 114/93/151 113/138/196
s 26
f 99/121/155 98/128/197 113/138/198 114/93/156
s 28
f 98/127/181 97/106/162 112/105/168 113/139/194
s 15
f 115/97/108 116/141/107 122/145/199 121/96/160
s 18
f 116/140/200 117/112/120 123/115/119 122/144/201
s 15
f 121/96/160 122/145/199 125/147/202 124/95/157
s 17
f 122/144/203 123/115/116 126/118/115 125/146/204
s 15
f 124/95/157 125/147/202 128/149/205 127/94/158
s 16
f 125/146/206 126/118/112 129/126/111 128/150/207
s 15
f 127/94/158 128/149/205 131/152/208 130/100/161
s 20
f 128/148/209 129/80/130 132/124/129 131/151/210
s 19
f 118/109/125 119/143/211 131/151/212 132/124/126
s 15
f 119/142/110 120/98/109 130/100/161 131/152/208
